{
  "accessors": [
    {
      "bufferView": 1,
      "componentType": 5126,
      "count": 972,
      "max": [
        2.663630962371826,
        1.0225410461425781,
        3.383763074874878
      ],
      "min": [
        -2.602200984954834,
        -1.0694949626922607,
        -2.4916560649871826
      ],
      "type": "VEC3"
    },
    {
      "bufferView": 1,
      "byteOffset": 11664,
      "componentType": 5126,
      "count": 972,
      "max": [
        1.0,
        1.0,
        1.0
      ],
      "min": [
        -1.0,
        -1.0,
        -1.0
      ],
      "type": "VEC3"
    },
    {
      "bufferView": 0,
      "componentType": 5125,
      "count": 1944,
      "type": "SCALAR"
    },
    {
      "bufferView": 1,
      "byteOffset": 23328,
      "componentType": 5126,
      "count": 126,
      "max": [
        2.005028009414673,
        1.6096199750900269,
        -2.226212978363037
      ],
      "min": [
        -2.3413920402526855,
        -1.6363190412521362,
        -3.7762839794158936
      ],
      "type": "VEC3"
    },
    {
      "bufferView": 1,
      "byteOffset": 24840,
      "componentType": 5126,
      "count": 126,
      "max": [
        1.0,
        1.0,
        0.5263718366622925
      ],
      "min": [
        -1.0,
        -1.0,
        -0.999836266040802
      ],
      "type": "VEC3"
    },
    {
      "bufferView": 0,
      "byteOffset": 7776,
      "componentType": 5125,
      "count": 228,
      "type": "SCALAR"
    },
    {
      "bufferView": 1,
      "byteOffset": 26352,
      "componentType": 5126,
      "count": 1264,
      "max": [
        2.9750421047210693,
        0.881039023399353,
        3.7764639854431152
      ],
      "min": [
        -3.0339889526367188,
        -0.8810399770736694,
        -0.633135974407196
      ],
      "type": "VEC3"
    },
    {
      "bufferView": 1,
      "byteOffset": 41520,
      "componentType": 5126,
      "count": 1264,
      "max": [
        0.9986993074417114,
        0.9951803088188171,
        0.9661770462989807
      ],
      "min": [
        -0.9986993074417114,
        -0.9951803088188171,
        -0.9661770462989807
      ],
      "type": "VEC3"
    },
    {
      "bufferView": 0,
      "byteOffset": 8688,
      "componentType": 5125,
      "count": 2472,
      "type": "SCALAR"
    },
    {
      "bufferView": 1,
      "byteOffset": 56688,
      "componentType": 5126,
      "count": 128,
      "max": [
        2.819308042526245,
        0.40463799238204956,
        3.423919916152954
      ],
      "min": [
        -2.948805093765259,
        -0.4071449935436249,
        -0.45885398983955383
      ],
      "type": "VEC3"
    },
    {
      "bufferView": 1,
      "byteOffset": 58224,
      "componentType": 5126,
      "count": 128,
      "max": [
        0.509030282497406,
        0.9951868057250977,
        0.8551777601242065
      ],
      "min": [
        -0.509030282497406,
        -0.9951868057250977,
        -0.8551777601242065
      ],
      "type": "VEC3"
    },
    {
      "bufferView": 0,
      "byteOffset": 18576,
      "componentType": 5125,
      "count": 192,
      "type": "SCALAR"
    }
  ],
  "asset": {
    "extras": {
      "author": "NHY_Studio (https://sketchfab.com/NHY_Studio)",
      "license": "CC-BY-4.0 (http://creativecommons.org/licenses/by/4.0/)",
      "source": "https://sketchfab.com/3d-models/telescope-5c5bc5a44cd849998233294e6fb52d1e",
      "title": "Telescope"
    },
    "generator": "Sketchfab-12.67.0",
    "version": "2.0"
  },
  "bufferViews": [
    {
      "buffer": 0,
      "byteLength": 19344,
      "name": "floatBufferViews",
      "target": 34963
    },
    {
      "buffer": 0,
      "byteLength": 59760,
      "byteOffset": 19344,
      "byteStride": 12,
      "name": "floatBufferViews",
      "target": 34962
    }
  ],
  "buffers": [
    {
      "byteLength": 79104,
      "uri": "scene.bin"
    }
  ],
  "materials": [
    {
      "doubleSided": true,
      "name": "Material.001",
      "pbrMetallicRoughness": {
        "baseColorFactor": [
          0.007718,
          0.166333,
          0.081273,
          1.0
        ],
        "metallicFactor": 0.0,
        "roughnessFactor": 0.8434915419926713
      }
    },
    {
      "doubleSided": true,
      "name": "Material.003",
      "pbrMetallicRoughness": {
        "baseColorFactor": [
          0.143089,
          0.143089,
          0.143089,
          1.0
        ],
        "metallicFactor": 0.0,
        "roughnessFactor": 0.8434915419926713
      }
    },
    {
      "doubleSided": true,
      "name": "Material.004",
      "pbrMetallicRoughness": {
        "baseColorFactor": [
          0.314492,
          0.302364,
          0.027929,
          1.0
        ],
        "metallicFactor": 0.0,
        "roughnessFactor": 0.8434915419926713
      }
    },
    {
      "doubleSided": true,
      "name": "Material.005",
      "pbrMetallicRoughness": {
        "baseColorFactor": [
          0.261101,
          0.261101,
          0.261101,
          1.0
        ],
        "metallicFactor": 0.0,
        "roughnessFactor": 0.8434915419926713
      }
    }
  ],
  "meshes": [
    {
      "name": "Object_0",
      "primitives": [
        {
          "attributes": {
            "NORMAL": 1,
            "POSITION": 0
          },
          "indices": 2,
          "material": 0,
          "mode": 4
        }
      ]
    },
    {
      "name": "Object_1",
      "primitives": [
        {
          "attributes": {
            "NORMAL": 4,
            "POSITION": 3
          },
          "indices": 5,
          "material": 1,
          "mode": 4
        }
      ]
    },
    {
      "name": "Object_2",
      "primitives": [
        {
          "attributes": {
            "NORMAL": 7,
            "POSITION": 6
          },
          "indices": 8,
          "material": 2,
          "mode": 4
        }
      ]
    },
    {
      "name": "Object_3",
      "primitives": [
        {
          "attributes": {
            "NORMAL": 10,
            "POSITION": 9
          },
          "indices": 11,
          "material": 3,
          "mode": 4
        }
      ]
    }
  ],
  "nodes": [
    {
      "children": [
        1
      ],
      "matrix": [
        1.0,
        0.0,
        0.0,
        0.0,
        0.0,
        2.220446049250313e-16,
        -1.0,
        0.0,
        0.0,
        1.0,
        2.220446049250313e-16,
        0.0,
        0.0,
        0.0,
        0.0,
        1.0
      ],
      "name": "Sketchfab_model"
    },
    {
      "children": [
        2,
        3,
        4,
        5
      ],
      "name": "Telescope.obj.cleaner.materialmerger.gles"
    },
    {
      "mesh": 0,
      "name": "Object_2"
    },
    {
      "mesh": 1,
      "name": "Object_3"
    },
    {
      "mesh": 2,
      "name": "Object_4"
    },
    {
      "mesh": 3,
      "name": "Object_5"
    }
  ],
  "scene": 0,
  "scenes": [
    {
      "name": "Sketchfab_Scene",
      "nodes": [
        0
      ]
    }
  ]
}
